<svg width="764" height="76" viewBox="0 0 764 76" fill="none" xmlns="http://www.w3.org/2000/svg">
<g filter="url(#filter0_d_108_79)">
<rect x="10" width="744" height="56" rx="8" fill="#02A28F" shape-rendering="crispEdges"/>
<path d="M35.66 35V21H41.72C42.9733 21 44.0533 21.2067 44.96 21.62C45.8667 22.02 46.5667 22.6 47.06 23.36C47.5533 24.12 47.8 25.0267 47.8 26.08C47.8 27.12 47.5533 28.02 47.06 28.78C46.5667 29.54 45.8667 30.1267 44.96 30.54C44.0533 30.94 42.9733 31.14 41.72 31.14H37.46L38.9 29.68V35H35.66ZM38.9 30.04L37.46 28.5H41.54C42.54 28.5 43.2867 28.2867 43.78 27.86C44.2733 27.4333 44.52 26.84 44.52 26.08C44.52 25.3067 44.2733 24.7067 43.78 24.28C43.2867 23.8533 42.54 23.64 41.54 23.64H37.46L38.9 22.1V30.04ZM54.9936 35.16C53.8469 35.16 52.8269 34.92 51.9336 34.44C51.0536 33.96 50.3536 33.3067 49.8336 32.48C49.3269 31.64 49.0736 30.6867 49.0736 29.62C49.0736 28.54 49.3269 27.5867 49.8336 26.76C50.3536 25.92 51.0536 25.2667 51.9336 24.8C52.8269 24.32 53.8469 24.08 54.9936 24.08C56.1269 24.08 57.1403 24.32 58.0336 24.8C58.9269 25.2667 59.6269 25.9133 60.1336 26.74C60.6403 27.5667 60.8936 28.5267 60.8936 29.62C60.8936 30.6867 60.6403 31.64 60.1336 32.48C59.6269 33.3067 58.9269 33.96 58.0336 34.44C57.1403 34.92 56.1269 35.16 54.9936 35.16ZM54.9936 32.6C55.5136 32.6 55.9803 32.48 56.3936 32.24C56.8069 32 57.1336 31.66 57.3736 31.22C57.6136 30.7667 57.7336 30.2333 57.7336 29.62C57.7336 28.9933 57.6136 28.46 57.3736 28.02C57.1336 27.58 56.8069 27.24 56.3936 27C55.9803 26.76 55.5136 26.64 54.9936 26.64C54.4736 26.64 54.0069 26.76 53.5936 27C53.1803 27.24 52.8469 27.58 52.5936 28.02C52.3536 28.46 52.2336 28.9933 52.2336 29.62C52.2336 30.2333 52.3536 30.7667 52.5936 31.22C52.8469 31.66 53.1803 32 53.5936 32.24C54.0069 32.48 54.4736 32.6 54.9936 32.6ZM66.5991 35.16C65.6791 35.16 64.7924 35.0533 63.9391 34.84C63.0991 34.6133 62.4324 34.3333 61.9391 34L62.9791 31.76C63.4724 32.0667 64.0524 32.32 64.7191 32.52C65.3991 32.7067 66.0657 32.8 66.7191 32.8C67.4391 32.8 67.9457 32.7133 68.2391 32.54C68.5457 32.3667 68.6991 32.1267 68.6991 31.82C68.6991 31.5667 68.5791 31.38 68.3391 31.26C68.1124 31.1267 67.8057 31.0267 67.4191 30.96C67.0324 30.8933 66.6057 30.8267 66.1391 30.76C65.6857 30.6933 65.2257 30.6067 64.7591 30.5C64.2924 30.38 63.8657 30.2067 63.4791 29.98C63.0924 29.7533 62.7791 29.4467 62.5391 29.06C62.3124 28.6733 62.1991 28.1733 62.1991 27.56C62.1991 26.88 62.3924 26.28 62.7791 25.76C63.1791 25.24 63.7524 24.8333 64.4991 24.54C65.2457 24.2333 66.1391 24.08 67.1791 24.08C67.9124 24.08 68.6591 24.16 69.4191 24.32C70.1791 24.48 70.8124 24.7133 71.3191 25.02L70.2791 27.24C69.7591 26.9333 69.2324 26.7267 68.6991 26.62C68.1791 26.5 67.6724 26.44 67.1791 26.44C66.4857 26.44 65.9791 26.5333 65.6591 26.72C65.3391 26.9067 65.1791 27.1467 65.1791 27.44C65.1791 27.7067 65.2924 27.9067 65.5191 28.04C65.7591 28.1733 66.0724 28.28 66.4591 28.36C66.8457 28.44 67.2657 28.5133 67.7191 28.58C68.1857 28.6333 68.6524 28.72 69.1191 28.84C69.5857 28.96 70.0057 29.1333 70.3791 29.36C70.7657 29.5733 71.0791 29.8733 71.3191 30.26C71.5591 30.6333 71.6791 31.1267 71.6791 31.74C71.6791 32.4067 71.4791 33 71.0791 33.52C70.6791 34.0267 70.0991 34.4267 69.3391 34.72C68.5924 35.0133 67.6791 35.16 66.5991 35.16ZM78.0041 35.16C76.7374 35.16 75.7507 34.84 75.0441 34.2C74.3374 33.5467 73.9841 32.58 73.9841 31.3V21.86H77.1041V31.26C77.1041 31.7133 77.2241 32.0667 77.4641 32.32C77.7041 32.56 78.0307 32.68 78.4441 32.68C78.9374 32.68 79.3574 32.5467 79.7041 32.28L80.5441 34.48C80.2241 34.7067 79.8374 34.88 79.3841 35C78.9441 35.1067 78.4841 35.16 78.0041 35.16ZM72.3241 26.88V24.48H79.7841V26.88H72.3241ZM85.9155 35.16C84.9955 35.16 84.1088 35.0533 83.2555 34.84C82.4155 34.6133 81.7488 34.3333 81.2555 34L82.2955 31.76C82.7888 32.0667 83.3688 32.32 84.0355 32.52C84.7155 32.7067 85.3821 32.8 86.0355 32.8C86.7555 32.8 87.2621 32.7133 87.5555 32.54C87.8621 32.3667 88.0155 32.1267 88.0155 31.82C88.0155 31.5667 87.8955 31.38 87.6555 31.26C87.4288 31.1267 87.1221 31.0267 86.7355 30.96C86.3488 30.8933 85.9221 30.8267 85.4555 30.76C85.0021 30.6933 84.5421 30.6067 84.0755 30.5C83.6088 30.38 83.1821 30.2067 82.7955 29.98C82.4088 29.7533 82.0955 29.4467 81.8555 29.06C81.6288 28.6733 81.5155 28.1733 81.5155 27.56C81.5155 26.88 81.7088 26.28 82.0955 25.76C82.4955 25.24 83.0688 24.8333 83.8155 24.54C84.5621 24.2333 85.4555 24.08 86.4955 24.08C87.2288 24.08 87.9755 24.16 88.7355 24.32C89.4955 24.48 90.1288 24.7133 90.6355 25.02L89.5955 27.24C89.0755 26.9333 88.5488 26.7267 88.0155 26.62C87.4955 26.5 86.9888 26.44 86.4955 26.44C85.8021 26.44 85.2955 26.5333 84.9755 26.72C84.6555 26.9067 84.4955 27.1467 84.4955 27.44C84.4955 27.7067 84.6088 27.9067 84.8355 28.04C85.0755 28.1733 85.3888 28.28 85.7755 28.36C86.1621 28.44 86.5821 28.5133 87.0355 28.58C87.5021 28.6333 87.9688 28.72 88.4355 28.84C88.9021 28.96 89.3221 29.1333 89.6955 29.36C90.0821 29.5733 90.3955 29.8733 90.6355 30.26C90.8755 30.6333 90.9955 31.1267 90.9955 31.74C90.9955 32.4067 90.7955 33 90.3955 33.52C89.9955 34.0267 89.4155 34.4267 88.6555 34.72C87.9088 35.0133 86.9955 35.16 85.9155 35.16ZM112.365 24.08C113.218 24.08 113.971 24.2533 114.625 24.6C115.291 24.9333 115.811 25.4533 116.185 26.16C116.571 26.8533 116.765 27.7467 116.765 28.84V35H113.645V29.32C113.645 28.4533 113.465 27.8133 113.105 27.4C112.745 26.9867 112.238 26.78 111.585 26.78C111.131 26.78 110.725 26.8867 110.365 27.1C110.005 27.3 109.725 27.6067 109.525 28.02C109.325 28.4333 109.225 28.96 109.225 29.6V35H106.105V29.32C106.105 28.4533 105.925 27.8133 105.565 27.4C105.218 26.9867 104.718 26.78 104.065 26.78C103.611 26.78 103.205 26.8867 102.845 27.1C102.485 27.3 102.205 27.6067 102.005 28.02C101.805 28.4333 101.705 28.96 101.705 29.6V35H98.5845V24.24H101.565V27.18L101.005 26.32C101.378 25.5867 101.905 25.0333 102.585 24.66C103.278 24.2733 104.065 24.08 104.945 24.08C105.931 24.08 106.791 24.3333 107.525 24.84C108.271 25.3333 108.765 26.0933 109.005 27.12L107.905 26.82C108.265 25.98 108.838 25.3133 109.625 24.82C110.425 24.3267 111.338 24.08 112.365 24.08ZM126.161 35V32.9L125.961 32.44V28.68C125.961 28.0133 125.754 27.4933 125.341 27.12C124.941 26.7467 124.321 26.56 123.481 26.56C122.908 26.56 122.341 26.6533 121.781 26.84C121.234 27.0133 120.768 27.2533 120.381 27.56L119.261 25.38C119.848 24.9667 120.554 24.6467 121.381 24.42C122.208 24.1933 123.048 24.08 123.901 24.08C125.541 24.08 126.814 24.4667 127.721 25.24C128.628 26.0133 129.081 27.22 129.081 28.86V35H126.161ZM122.881 35.16C122.041 35.16 121.321 35.02 120.721 34.74C120.121 34.4467 119.661 34.0533 119.341 33.56C119.021 33.0667 118.861 32.5133 118.861 31.9C118.861 31.26 119.014 30.7 119.321 30.22C119.641 29.74 120.141 29.3667 120.821 29.1C121.501 28.82 122.388 28.68 123.481 28.68H126.341V30.5H123.821C123.088 30.5 122.581 30.62 122.301 30.86C122.034 31.1 121.901 31.4 121.901 31.76C121.901 32.16 122.054 32.48 122.361 32.72C122.681 32.9467 123.114 33.06 123.661 33.06C124.181 33.06 124.648 32.94 125.061 32.7C125.474 32.4467 125.774 32.08 125.961 31.6L126.441 33.04C126.214 33.7333 125.801 34.26 125.201 34.62C124.601 34.98 123.828 35.16 122.881 35.16ZM131.905 35V24.24H135.025V35H131.905ZM133.465 22.74C132.892 22.74 132.425 22.5733 132.065 22.24C131.705 21.9067 131.525 21.4933 131.525 21C131.525 20.5067 131.705 20.0933 132.065 19.76C132.425 19.4267 132.892 19.26 133.465 19.26C134.038 19.26 134.505 19.42 134.865 19.74C135.225 20.0467 135.405 20.4467 135.405 20.94C135.405 21.46 135.225 21.8933 134.865 22.24C134.518 22.5733 134.052 22.74 133.465 22.74ZM141.54 35.16C140.62 35.16 139.734 35.0533 138.88 34.84C138.04 34.6133 137.374 34.3333 136.88 34L137.92 31.76C138.414 32.0667 138.994 32.32 139.66 32.52C140.34 32.7067 141.007 32.8 141.66 32.8C142.38 32.8 142.887 32.7133 143.18 32.54C143.487 32.3667 143.64 32.1267 143.64 31.82C143.64 31.5667 143.52 31.38 143.28 31.26C143.054 31.1267 142.747 31.0267 142.36 30.96C141.974 30.8933 141.547 30.8267 141.08 30.76C140.627 30.6933 140.167 30.6067 139.7 30.5C139.234 30.38 138.807 30.2067 138.42 29.98C138.034 29.7533 137.72 29.4467 137.48 29.06C137.254 28.6733 137.14 28.1733 137.14 27.56C137.14 26.88 137.334 26.28 137.72 25.76C138.12 25.24 138.694 24.8333 139.44 24.54C140.187 24.2333 141.08 24.08 142.12 24.08C142.854 24.08 143.6 24.16 144.36 24.32C145.12 24.48 145.754 24.7133 146.26 25.02L145.22 27.24C144.7 26.9333 144.174 26.7267 143.64 26.62C143.12 26.5 142.614 26.44 142.12 26.44C141.427 26.44 140.92 26.5333 140.6 26.72C140.28 26.9067 140.12 27.1467 140.12 27.44C140.12 27.7067 140.234 27.9067 140.46 28.04C140.7 28.1733 141.014 28.28 141.4 28.36C141.787 28.44 142.207 28.5133 142.66 28.58C143.127 28.6333 143.594 28.72 144.06 28.84C144.527 28.96 144.947 29.1333 145.32 29.36C145.707 29.5733 146.02 29.8733 146.26 30.26C146.5 30.6333 146.62 31.1267 146.62 31.74C146.62 32.4067 146.42 33 146.02 33.52C145.62 34.0267 145.04 34.4267 144.28 34.72C143.534 35.0133 142.62 35.16 141.54 35.16ZM154.21 35V24.24H157.19V27.28L156.77 26.4C157.09 25.64 157.603 25.0667 158.31 24.68C159.016 24.28 159.876 24.08 160.89 24.08V26.96C160.756 26.9467 160.636 26.94 160.53 26.94C160.423 26.9267 160.31 26.92 160.19 26.92C159.336 26.92 158.643 27.1667 158.11 27.66C157.59 28.14 157.33 28.8933 157.33 29.92V35H154.21ZM168.007 35.16C166.78 35.16 165.7 34.92 164.767 34.44C163.847 33.96 163.133 33.3067 162.627 32.48C162.12 31.64 161.867 30.6867 161.867 29.62C161.867 28.54 162.113 27.5867 162.607 26.76C163.113 25.92 163.8 25.2667 164.667 24.8C165.533 24.32 166.513 24.08 167.607 24.08C168.66 24.08 169.607 24.3067 170.447 24.76C171.3 25.2 171.973 25.84 172.467 26.68C172.96 27.5067 173.207 28.5 173.207 29.66C173.207 29.78 173.2 29.92 173.187 30.08C173.173 30.2267 173.16 30.3667 173.147 30.5H164.407V28.68H171.507L170.307 29.22C170.307 28.66 170.193 28.1733 169.967 27.76C169.74 27.3467 169.427 27.0267 169.027 26.8C168.627 26.56 168.16 26.44 167.627 26.44C167.093 26.44 166.62 26.56 166.207 26.8C165.807 27.0267 165.493 27.3533 165.267 27.78C165.04 28.1933 164.927 28.6867 164.927 29.26V29.74C164.927 30.3267 165.053 30.8467 165.307 31.3C165.573 31.74 165.94 32.08 166.407 32.32C166.887 32.5467 167.447 32.66 168.087 32.66C168.66 32.66 169.16 32.5733 169.587 32.4C170.027 32.2267 170.427 31.9667 170.787 31.62L172.447 33.42C171.953 33.98 171.333 34.4133 170.587 34.72C169.84 35.0133 168.98 35.16 168.007 35.16ZM180.484 35.16C179.324 35.16 178.29 34.9267 177.384 34.46C176.477 33.98 175.764 33.32 175.244 32.48C174.737 31.64 174.484 30.6867 174.484 29.62C174.484 28.54 174.737 27.5867 175.244 26.76C175.764 25.92 176.477 25.2667 177.384 24.8C178.29 24.32 179.324 24.08 180.484 24.08C181.617 24.08 182.604 24.32 183.444 24.8C184.284 25.2667 184.904 25.94 185.304 26.82L182.884 28.12C182.604 27.6133 182.25 27.24 181.824 27C181.41 26.76 180.957 26.64 180.464 26.64C179.93 26.64 179.45 26.76 179.024 27C178.597 27.24 178.257 27.58 178.004 28.02C177.764 28.46 177.644 28.9933 177.644 29.62C177.644 30.2467 177.764 30.78 178.004 31.22C178.257 31.66 178.597 32 179.024 32.24C179.45 32.48 179.93 32.6 180.464 32.6C180.957 32.6 181.41 32.4867 181.824 32.26C182.25 32.02 182.604 31.64 182.884 31.12L185.304 32.44C184.904 33.3067 184.284 33.98 183.444 34.46C182.604 34.9267 181.617 35.16 180.484 35.16ZM192.303 35.16C191.077 35.16 189.997 34.92 189.063 34.44C188.143 33.96 187.43 33.3067 186.923 32.48C186.417 31.64 186.163 30.6867 186.163 29.62C186.163 28.54 186.41 27.5867 186.903 26.76C187.41 25.92 188.097 25.2667 188.963 24.8C189.83 24.32 190.81 24.08 191.903 24.08C192.957 24.08 193.903 24.3067 194.743 24.76C195.597 25.2 196.27 25.84 196.763 26.68C197.257 27.5067 197.503 28.5 197.503 29.66C197.503 29.78 197.497 29.92 197.483 30.08C197.47 30.2267 197.457 30.3667 197.443 30.5H188.703V28.68H195.803L194.603 29.22C194.603 28.66 194.49 28.1733 194.263 27.76C194.037 27.3467 193.723 27.0267 193.323 26.8C192.923 26.56 192.457 26.44 191.923 26.44C191.39 26.44 190.917 26.56 190.503 26.8C190.103 27.0267 189.79 27.3533 189.563 27.78C189.337 28.1933 189.223 28.6867 189.223 29.26V29.74C189.223 30.3267 189.35 30.8467 189.603 31.3C189.87 31.74 190.237 32.08 190.703 32.32C191.183 32.5467 191.743 32.66 192.383 32.66C192.957 32.66 193.457 32.5733 193.883 32.4C194.323 32.2267 194.723 31.9667 195.083 31.62L196.743 33.42C196.25 33.98 195.63 34.4133 194.883 34.72C194.137 35.0133 193.277 35.16 192.303 35.16ZM206.121 24.08C206.974 24.08 207.734 24.2533 208.401 24.6C209.081 24.9333 209.614 25.4533 210.001 26.16C210.387 26.8533 210.581 27.7467 210.581 28.84V35H207.461V29.32C207.461 28.4533 207.267 27.8133 206.881 27.4C206.507 26.9867 205.974 26.78 205.281 26.78C204.787 26.78 204.341 26.8867 203.941 27.1C203.554 27.3 203.247 27.6133 203.021 28.04C202.807 28.4667 202.701 29.0133 202.701 29.68V35H199.581V24.24H202.561V27.22L202.001 26.32C202.387 25.6 202.941 25.0467 203.661 24.66C204.381 24.2733 205.201 24.08 206.121 24.08ZM217.809 35.16C216.542 35.16 215.555 34.84 214.849 34.2C214.142 33.5467 213.789 32.58 213.789 31.3V21.86H216.909V31.26C216.909 31.7133 217.029 32.0667 217.269 32.32C217.509 32.56 217.835 32.68 218.249 32.68C218.742 32.68 219.162 32.5467 219.509 32.28L220.349 34.48C220.029 34.7067 219.642 34.88 219.189 35C218.749 35.1067 218.289 35.16 217.809 35.16ZM212.129 26.88V24.48H219.589V26.88H212.129ZM227.108 35.16C225.881 35.16 224.801 34.92 223.868 34.44C222.948 33.96 222.235 33.3067 221.728 32.48C221.221 31.64 220.968 30.6867 220.968 29.62C220.968 28.54 221.215 27.5867 221.708 26.76C222.215 25.92 222.901 25.2667 223.768 24.8C224.635 24.32 225.615 24.08 226.708 24.08C227.761 24.08 228.708 24.3067 229.548 24.76C230.401 25.2 231.075 25.84 231.568 26.68C232.061 27.5067 232.308 28.5 232.308 29.66C232.308 29.78 232.301 29.92 232.288 30.08C232.275 30.2267 232.261 30.3667 232.248 30.5H223.508V28.68H230.608L229.408 29.22C229.408 28.66 229.295 28.1733 229.068 27.76C228.841 27.3467 228.528 27.0267 228.128 26.8C227.728 26.56 227.261 26.44 226.728 26.44C226.195 26.44 225.721 26.56 225.308 26.8C224.908 27.0267 224.595 27.3533 224.368 27.78C224.141 28.1933 224.028 28.6867 224.028 29.26V29.74C224.028 30.3267 224.155 30.8467 224.408 31.3C224.675 31.74 225.041 32.08 225.508 32.32C225.988 32.5467 226.548 32.66 227.188 32.66C227.761 32.66 228.261 32.5733 228.688 32.4C229.128 32.2267 229.528 31.9667 229.888 31.62L231.548 33.42C231.055 33.98 230.435 34.4133 229.688 34.72C228.941 35.0133 228.081 35.16 227.108 35.16ZM238.005 35.16C237.085 35.16 236.199 35.0533 235.345 34.84C234.505 34.6133 233.839 34.3333 233.345 34L234.385 31.76C234.879 32.0667 235.459 32.32 236.125 32.52C236.805 32.7067 237.472 32.8 238.125 32.8C238.845 32.8 239.352 32.7133 239.645 32.54C239.952 32.3667 240.105 32.1267 240.105 31.82C240.105 31.5667 239.985 31.38 239.745 31.26C239.519 31.1267 239.212 31.0267 238.825 30.96C238.439 30.8933 238.012 30.8267 237.545 30.76C237.092 30.6933 236.632 30.6067 236.165 30.5C235.699 30.38 235.272 30.2067 234.885 29.98C234.499 29.7533 234.185 29.4467 233.945 29.06C233.719 28.6733 233.605 28.1733 233.605 27.56C233.605 26.88 233.799 26.28 234.185 25.76C234.585 25.24 235.159 24.8333 235.905 24.54C236.652 24.2333 237.545 24.08 238.585 24.08C239.319 24.08 240.065 24.16 240.825 24.32C241.585 24.48 242.219 24.7133 242.725 25.02L241.685 27.24C241.165 26.9333 240.639 26.7267 240.105 26.62C239.585 26.5 239.079 26.44 238.585 26.44C237.892 26.44 237.385 26.5333 237.065 26.72C236.745 26.9067 236.585 27.1467 236.585 27.44C236.585 27.7067 236.699 27.9067 236.925 28.04C237.165 28.1733 237.479 28.28 237.865 28.36C238.252 28.44 238.672 28.5133 239.125 28.58C239.592 28.6333 240.059 28.72 240.525 28.84C240.992 28.96 241.412 29.1333 241.785 29.36C242.172 29.5733 242.485 29.8733 242.725 30.26C242.965 30.6333 243.085 31.1267 243.085 31.74C243.085 32.4067 242.885 33 242.485 33.52C242.085 34.0267 241.505 34.4267 240.745 34.72C239.999 35.0133 239.085 35.16 238.005 35.16Z" fill="white"/>
<path d="M666.298 33.5L661.986 23.7H663.498L667.46 32.744H666.592L670.582 23.7H671.982L667.684 33.5H666.298ZM675.779 33.584C674.986 33.584 674.286 33.4207 673.679 33.094C673.082 32.7673 672.615 32.3193 672.279 31.75C671.953 31.1807 671.789 30.5273 671.789 29.79C671.789 29.0527 671.948 28.3993 672.265 27.83C672.592 27.2607 673.035 26.8173 673.595 26.5C674.165 26.1733 674.804 26.01 675.513 26.01C676.232 26.01 676.867 26.1687 677.417 26.486C677.968 26.8033 678.397 27.2513 678.705 27.83C679.023 28.3993 679.181 29.0667 679.181 29.832C679.181 29.888 679.177 29.9533 679.167 30.028C679.167 30.1027 679.163 30.1727 679.153 30.238H672.839V29.272H678.453L677.907 29.608C677.917 29.132 677.819 28.7073 677.613 28.334C677.408 27.9607 677.123 27.6713 676.759 27.466C676.405 27.2513 675.989 27.144 675.513 27.144C675.047 27.144 674.631 27.2513 674.267 27.466C673.903 27.6713 673.619 27.9653 673.413 28.348C673.208 28.7213 673.105 29.1507 673.105 29.636V29.86C673.105 30.3547 673.217 30.798 673.441 31.19C673.675 31.5727 673.997 31.8713 674.407 32.086C674.818 32.3007 675.289 32.408 675.821 32.408C676.26 32.408 676.657 32.3333 677.011 32.184C677.375 32.0347 677.693 31.8107 677.963 31.512L678.705 32.38C678.369 32.772 677.949 33.0707 677.445 33.276C676.951 33.4813 676.395 33.584 675.779 33.584ZM681.047 33.5V26.08H682.335V28.096L682.209 27.592C682.415 27.0787 682.76 26.6867 683.245 26.416C683.731 26.1453 684.328 26.01 685.037 26.01V27.312C684.981 27.3027 684.925 27.298 684.869 27.298C684.823 27.298 684.776 27.298 684.729 27.298C684.011 27.298 683.441 27.5127 683.021 27.942C682.601 28.3713 682.391 28.992 682.391 29.804V33.5H681.047ZM693.097 33.584C692.351 33.584 691.772 33.3833 691.361 32.982C690.951 32.5807 690.745 32.0067 690.745 31.26V24.456H692.089V31.204C692.089 31.6053 692.187 31.9133 692.383 32.128C692.589 32.3427 692.878 32.45 693.251 32.45C693.671 32.45 694.021 32.3333 694.301 32.1L694.721 33.066C694.516 33.2433 694.269 33.374 693.979 33.458C693.699 33.542 693.405 33.584 693.097 33.584ZM689.485 27.186V26.08H694.217V27.186H689.485ZM699.278 33.584C698.532 33.584 697.869 33.4207 697.29 33.094C696.712 32.7673 696.254 32.3193 695.918 31.75C695.582 31.1713 695.414 30.518 695.414 29.79C695.414 29.0527 695.582 28.3993 695.918 27.83C696.254 27.2607 696.712 26.8173 697.29 26.5C697.869 26.1733 698.532 26.01 699.278 26.01C700.016 26.01 700.674 26.1733 701.252 26.5C701.84 26.8173 702.298 27.2607 702.624 27.83C702.96 28.39 703.128 29.0433 703.128 29.79C703.128 30.5273 702.96 31.1807 702.624 31.75C702.298 32.3193 701.84 32.7673 701.252 33.094C700.674 33.4207 700.016 33.584 699.278 33.584ZM699.278 32.408C699.754 32.408 700.179 32.3007 700.552 32.086C700.935 31.8713 701.234 31.568 701.448 31.176C701.663 30.7747 701.77 30.3127 701.77 29.79C701.77 29.258 701.663 28.8007 701.448 28.418C701.234 28.026 700.935 27.7227 700.552 27.508C700.179 27.2933 699.754 27.186 699.278 27.186C698.802 27.186 698.378 27.2933 698.004 27.508C697.631 27.7227 697.332 28.026 697.108 28.418C696.884 28.8007 696.772 29.258 696.772 29.79C696.772 30.3127 696.884 30.7747 697.108 31.176C697.332 31.568 697.631 31.8713 698.004 32.086C698.378 32.3007 698.802 32.408 699.278 32.408ZM708.053 33.584C707.334 33.584 706.69 33.4253 706.121 33.108C705.561 32.7907 705.118 32.3473 704.791 31.778C704.464 31.2087 704.301 30.546 704.301 29.79C704.301 29.034 704.464 28.376 704.791 27.816C705.118 27.2467 705.561 26.8033 706.121 26.486C706.69 26.1687 707.334 26.01 708.053 26.01C708.678 26.01 709.243 26.15 709.747 26.43C710.251 26.71 710.652 27.13 710.951 27.69C711.259 28.25 711.413 28.95 711.413 29.79C711.413 30.63 711.264 31.33 710.965 31.89C710.676 32.45 710.279 32.8747 709.775 33.164C709.271 33.444 708.697 33.584 708.053 33.584ZM708.165 32.408C708.632 32.408 709.052 32.3007 709.425 32.086C709.808 31.8713 710.106 31.568 710.321 31.176C710.545 30.7747 710.657 30.3127 710.657 29.79C710.657 29.258 710.545 28.8007 710.321 28.418C710.106 28.026 709.808 27.7227 709.425 27.508C709.052 27.2933 708.632 27.186 708.165 27.186C707.689 27.186 707.264 27.2933 706.891 27.508C706.518 27.7227 706.219 28.026 705.995 28.418C705.771 28.8007 705.659 29.258 705.659 29.79C705.659 30.3127 705.771 30.7747 705.995 31.176C706.219 31.568 706.518 31.8713 706.891 32.086C707.264 32.3007 707.689 32.408 708.165 32.408ZM710.699 33.5V31.498L710.783 29.776L710.643 28.054V23.112H711.987V33.5H710.699ZM717.708 33.584C716.961 33.584 716.299 33.4207 715.72 33.094C715.141 32.7673 714.684 32.3193 714.348 31.75C714.012 31.1713 713.844 30.518 713.844 29.79C713.844 29.0527 714.012 28.3993 714.348 27.83C714.684 27.2607 715.141 26.8173 715.72 26.5C716.299 26.1733 716.961 26.01 717.708 26.01C718.445 26.01 719.103 26.1733 719.682 26.5C720.27 26.8173 720.727 27.2607 721.054 27.83C721.39 28.39 721.558 29.0433 721.558 29.79C721.558 30.5273 721.39 31.1807 721.054 31.75C720.727 32.3193 720.27 32.7673 719.682 33.094C719.103 33.4207 718.445 33.584 717.708 33.584ZM717.708 32.408C718.184 32.408 718.609 32.3007 718.982 32.086C719.365 31.8713 719.663 31.568 719.878 31.176C720.093 30.7747 720.2 30.3127 720.2 29.79C720.2 29.258 720.093 28.8007 719.878 28.418C719.663 28.026 719.365 27.7227 718.982 27.508C718.609 27.2933 718.184 27.186 717.708 27.186C717.232 27.186 716.807 27.2933 716.434 27.508C716.061 27.7227 715.762 28.026 715.538 28.418C715.314 28.8007 715.202 29.258 715.202 29.79C715.202 30.3127 715.314 30.7747 715.538 31.176C715.762 31.568 716.061 31.8713 716.434 32.086C716.807 32.3007 717.232 32.408 717.708 32.408ZM725.545 33.584C724.929 33.584 724.341 33.5 723.781 33.332C723.23 33.164 722.796 32.9587 722.479 32.716L723.039 31.652C723.356 31.8667 723.748 32.0487 724.215 32.198C724.681 32.3473 725.157 32.422 725.643 32.422C726.268 32.422 726.716 32.3333 726.987 32.156C727.267 31.9787 727.407 31.7313 727.407 31.414C727.407 31.1807 727.323 30.9987 727.155 30.868C726.987 30.7373 726.763 30.6393 726.483 30.574C726.212 30.5087 725.909 30.4527 725.573 30.406C725.237 30.35 724.901 30.2847 724.565 30.21C724.229 30.126 723.921 30.014 723.641 29.874C723.361 29.7247 723.137 29.524 722.969 29.272C722.801 29.0107 722.717 28.6653 722.717 28.236C722.717 27.788 722.843 27.396 723.095 27.06C723.347 26.724 723.701 26.4673 724.159 26.29C724.625 26.1033 725.176 26.01 725.811 26.01C726.296 26.01 726.786 26.0707 727.281 26.192C727.785 26.304 728.195 26.4673 728.513 26.682L727.939 27.746C727.603 27.522 727.253 27.368 726.889 27.284C726.525 27.2 726.161 27.158 725.797 27.158C725.209 27.158 724.77 27.256 724.481 27.452C724.191 27.6387 724.047 27.8813 724.047 28.18C724.047 28.432 724.131 28.628 724.299 28.768C724.476 28.8987 724.7 29.0013 724.971 29.076C725.251 29.1507 725.559 29.216 725.895 29.272C726.231 29.3187 726.567 29.384 726.903 29.468C727.239 29.5427 727.542 29.65 727.813 29.79C728.093 29.93 728.317 30.126 728.485 30.378C728.662 30.63 728.751 30.966 728.751 31.386C728.751 31.834 728.62 32.2213 728.359 32.548C728.097 32.8747 727.729 33.1313 727.253 33.318C726.777 33.4953 726.207 33.584 725.545 33.584Z" fill="white"/>
<path d="M662 35.25H671.968V35.95H662V35.25ZM671.201 35.25H689.282V35.95H671.201V35.25ZM689.275 35.25H695.071V35.95H689.275V35.25ZM694.826 35.25H703.716V35.95H694.826V35.25ZM703.713 35.25H713.261V35.95H703.713V35.25ZM713.256 35.25H722.146V35.95H713.256V35.25ZM722.143 35.25H729.157V35.95H722.143V35.25Z" fill="white"/>
</g>
<defs>
<filter id="filter0_d_108_79" x="0" y="0" width="764" height="76" filterUnits="userSpaceOnUse" color-interpolation-filters="sRGB">
<feFlood flood-opacity="0" result="BackgroundImageFix"/>
<feColorMatrix in="SourceAlpha" type="matrix" values="0 0 0 0 0 0 0 0 0 0 0 0 0 0 0 0 0 0 127 0" result="hardAlpha"/>
<feOffset dy="10"/>
<feGaussianBlur stdDeviation="5"/>
<feComposite in2="hardAlpha" operator="out"/>
<feColorMatrix type="matrix" values="0 0 0 0 0 0 0 0 0 0 0 0 0 0 0 0 0 0 0.1 0"/>
<feBlend mode="normal" in2="BackgroundImageFix" result="effect1_dropShadow_108_79"/>
<feBlend mode="normal" in="SourceGraphic" in2="effect1_dropShadow_108_79" result="shape"/>
</filter>
</defs>
</svg>
